<svg xmlns="http://www.w3.org/2000/svg" viewBox="0 0 906.52 503.84"><defs><style>.cls-2{fill:#1e1e30}.cls-3{fill:#dfe0cd}.cls-4,.cls-7{fill:#fff}.cls-7{opacity:.56}.cls-8{opacity:.15}.cls-9{fill:#1b3c47}.cls-10{fill:#3f3e3e}.cls-12{fill:#cacad8}.cls-13{fill:#a1a1c4}.cls-16{fill:#7997a3}.cls-17{fill:#3c5159}.cls-19{fill:#70bee0}.cls-23{fill:#f29681}.cls-24{fill:#fdfdff}.cls-25{fill:#dd7b6b}.cls-27{fill:#dd9742}</style></defs><g id="Layer_2" data-name="Layer 2"><g id="Layer_1-2" data-name="Layer 1"><path d="M132.62 473.84H17.07A15.07 15.07 0 0 1 2 458.77a15.07 15.07 0 0 1 15.07-15.07h115.55" style="fill:#ecede2"/><path d="M22.64 457.73H3.49a1.5 1.5 0 0 1 0-3h19.15a1.5 1.5 0 0 1 0 3Z" class="cls-2"/><path d="M2 452.91h130.62v2H2zM2 457.98h130.62v2H2zM2 463.04h130.62v2H2zM6 468.1h126.62v2H6zM6 447.85h126.62v2H6z" class="cls-3"/><path d="M83.5 465.15H4a1.5 1.5 0 0 1 0-3h79.5a1.5 1.5 0 0 1 0 3Z" class="cls-2"/><path d="M40.65 443.53h48.06a5.32 5.32 0 0 1-5.32 5.32H46a5.32 5.32 0 0 1-5.32-5.32h-.03Z" class="cls-4"/><path d="M132.62 475.84H17.07a17.07 17.07 0 1 1 0-34.14h115.55a2 2 0 0 1 0 4H17.07a13.07 13.07 0 1 0 0 26.14h115.55a2 2 0 1 1 0 4ZM824.72 433.82a2 2 0 0 1-2-1.78l-7.38-67.51a2 2 0 0 1 4-.44l7.38 67.52a2 2 0 0 1-1.77 2.2Z" class="cls-2"/><path d="M813.73 394.83a1.5 1.5 0 0 1-1.49-1.33l-2.34-20.15a1.52 1.52 0 0 1 1.31-1.67l6.25-.77a1.5 1.5 0 1 1 .37 3l-4.78.59 2.17 18.68a1.5 1.5 0 0 1-1.32 1.66ZM833.77 431.82h-.25a2 2 0 0 1-1.74-2.23l8.22-67.52a2 2 0 0 1 4 .48l-8.24 67.51a2 2 0 0 1-1.99 1.76ZM856 431.82h-.24a2 2 0 0 1-1.74-2.23l8.24-67.51a2 2 0 0 1 4 .48l-8.26 67.5a2 2 0 0 1-2 1.76Z" class="cls-2"/><path d="M816.53 399.89h61.15v76.06h-61.15z" style="fill:#28f3bb"/><path d="M818.48 401.31h10.34v73.15h-10.34z" style="fill:#1bdda1"/><path d="M856.65 401.31h3.51v73.65h-3.51z" class="cls-4"/><path d="M863.2 401.31h1.73v73.65h-1.73zM868.68 401.31h1.73v73.65h-1.73z" class="cls-7"/><path d="M877.68 478h-61.15a2 2 0 0 1-2-2v-76.11a2 2 0 0 1 2-2h61.15a2 2 0 0 1 2 2V476a2 2 0 0 1-2 2Zm-59.15-4h57.15v-72.11h-57.15Z" class="cls-2"/><g class="cls-8"><path d="M797.6 126.5h-.29a1.5 1.5 0 0 1 0-3h.29a1.5 1.5 0 0 1 0 3Z" class="cls-9"/><path d="M808.53 126.5h-6a1.5 1.5 0 0 1 0-3h3v-15.06h-46.76v15.06H786a1.5 1.5 0 0 1 0 3h-30.23v-21.06h52.76Z" class="cls-9"/><path d="M793.26 126.5h-2.67a1.5 1.5 0 0 1 0-3h2.67a1.5 1.5 0 0 1 0 3ZM768.27 162.61h-12.5v-21.06h37.14a1.5 1.5 0 0 1 0 3h-34.14v15.06h9.5a1.5 1.5 0 0 1 0 3Z" class="cls-9"/><path d="M778.07 162.61h-5.41a1.5 1.5 0 0 1 0-3h5.41a1.5 1.5 0 0 1 0 3ZM782.2 162.61h-.11a1.5 1.5 0 0 1 0-3h.11a1.5 1.5 0 0 1 0 3ZM808.53 162.61h-22.08a1.5 1.5 0 0 1 0-3h19.08v-15.06h-6.62a1.5 1.5 0 0 1 0-3h9.67ZM783.25 144.55h-52.76V123.5h52.76Zm-49.76-3h46.76V126.5h-46.76Z" class="cls-9"/></g><path d="M181 452.55a20.49 20.49 0 1 1 20.49-20.49A20.51 20.51 0 0 1 181 452.55Zm0-31a10.49 10.49 0 1 0 10.49 10.49A10.49 10.49 0 0 0 181 421.57Z" class="cls-10"/><path d="M181.07 455a22 22 0 1 1 22-22 22 22 0 0 1-22 22Zm0-41a19 19 0 1 0 19 19 19 19 0 0 0-19-19Zm0 31a12 12 0 1 1 12-12 12 12 0 0 1-12 12Zm0-21a9 9 0 1 0 9 9 9 9 0 0 0-9-9Z" class="cls-2"/><rect width="66.88" height="84.81" x="113.53" y="388.63" class="cls-10" rx="5.44"/><path d="M181 405.56v65.54a5.44 5.44 0 0 1-5.44 5.44h-56a5.43 5.43 0 0 1-5.44-5.44V459a29.87 29.87 0 0 0 15.33 3.62c10.17-.37 19.74-5.54 27-12.65s12.5-16.06 16.92-25.22a132.71 132.71 0 0 0 7.63-19.19Z" style="fill:#302f2f"/><path d="M755.91 473.65a23.66 23.66 0 1 1 47.32 0" class="cls-12"/><path d="M803.25 473.62h-39.1A79.15 79.15 0 0 0 792.84 454a23.65 23.65 0 0 1 10.41 19.62Z" class="cls-13"/><g style="opacity:.15"><path d="M782 353h-12.5v-21.09h37.14a1.5 1.5 0 0 1 0 3h-34.11V350H782a1.5 1.5 0 0 1 0 3Z" class="cls-9"/><path d="M791.83 353h-5.41a1.5 1.5 0 1 1 0-3h5.41a1.5 1.5 0 1 1 0 3ZM796 353h-.11a1.5 1.5 0 0 1 0-3h.11a1.5 1.5 0 0 1 0 3ZM822.29 353h-22.08a1.5 1.5 0 0 1 0-3h19.08v-15.09h-6.62a1.5 1.5 0 0 1 0-3h9.67ZM797 334.91h-52.75v-21.05H797Zm-49.76-3H794v-15.05h-46.75Z" class="cls-9"/></g><g class="cls-8"><path d="M80 363.78h-.29a1.5 1.5 0 0 1 0-3H80a1.5 1.5 0 0 1 0 3Z" class="cls-9"/><path d="M90.89 363.78h-6a1.5 1.5 0 1 1 0-3h3v-15.06H41.13v15.06h27.19a1.5 1.5 0 0 1 0 3H38.13v-21.06h52.76Z" class="cls-9"/><path d="M75.62 363.78H73a1.5 1.5 0 1 1 0-3h2.67a1.5 1.5 0 0 1 0 3ZM50.63 399.89h-12.5v-21.06h37.14a1.5 1.5 0 0 1 0 3H41.13v15.06h9.5a1.5 1.5 0 0 1 0 3Z" class="cls-9"/><path d="M60.43 399.89H55a1.5 1.5 0 1 1 0-3h5.41a1.5 1.5 0 1 1 0 3ZM64.56 399.89h-.11a1.5 1.5 0 1 1 0-3h.11a1.5 1.5 0 0 1 0 3ZM90.89 399.89H68.81a1.5 1.5 0 0 1 0-3h19.08v-15.06h-6.62a1.5 1.5 0 1 1 0-3h9.67ZM65.61 381.83H12.85v-21.05h52.76Zm-49.76-3h46.76v-15.05H15.85Z" class="cls-9"/></g><g class="cls-8"><path d="M143.46 172.79h-.29a1.5 1.5 0 0 1 0-3h.29a1.5 1.5 0 0 1 0 3Z" class="cls-9"/><path d="M154.39 172.79h-6a1.5 1.5 0 0 1 0-3h3v-15.06h-46.76v15.06h27.19a1.5 1.5 0 0 1 0 3h-30.19v-21.06h52.76Z" class="cls-9"/><path d="M139.12 172.79h-2.67a1.5 1.5 0 0 1 0-3h2.67a1.5 1.5 0 0 1 0 3ZM114.13 208.9h-12.5v-21.06h37.14a1.5 1.5 0 0 1 0 3h-34.14v15.06h9.5a1.5 1.5 0 0 1 0 3Z" class="cls-9"/><path d="M123.93 208.9h-5.41a1.5 1.5 0 0 1 0-3h5.41a1.5 1.5 0 1 1 0 3ZM128.06 208.9H128a1.5 1.5 0 0 1 0-3h.11a1.5 1.5 0 0 1 0 3ZM154.39 208.9h-22.08a1.5 1.5 0 0 1 0-3h19.08v-15.06h-6.62a1.5 1.5 0 0 1 0-3h9.67ZM129.11 190.84H76.35v-21.05h52.76Zm-49.76-3h46.76v-15.05H79.35Z" class="cls-9"/></g><g class="cls-8"><path d="M499.29 21.06H499a1.5 1.5 0 0 1 0-3h.29a1.5 1.5 0 0 1 0 3Z" class="cls-9"/><path d="M510.22 21.06h-6a1.5 1.5 0 0 1 0-3h3V3h-46.76v15.06h27.19a1.5 1.5 0 0 1 0 3h-30.19V0h52.76Z" class="cls-9"/><path d="M495 21.06h-2.67a1.5 1.5 0 0 1 0-3H495a1.5 1.5 0 0 1 0 3ZM470 57.17h-12.5V36.11h37.1a1.5 1.5 0 0 1 0 3h-34.14v15.06H470a1.5 1.5 0 0 1 0 3Z" class="cls-9"/><path d="M479.76 57.17h-5.41a1.5 1.5 0 0 1 0-3h5.41a1.5 1.5 0 0 1 0 3ZM483.89 57.17h-.11a1.5 1.5 0 0 1 0-3h.11a1.5 1.5 0 0 1 0 3ZM510.22 57.17h-22.08a1.5 1.5 0 0 1 0-3h19.08V39.11h-6.62a1.5 1.5 0 0 1 0-3h9.67ZM484.94 39.11h-52.76v-21h52.76Zm-49.76-3h46.76v-15h-46.76Z" class="cls-9"/></g><path d="M531.15 484.66H391.38a9.26 9.26 0 0 1-8.6-12.7l25.91-65 52.58-14.44L513.85 407l25.9 65a9.26 9.26 0 0 1-8.6 12.66Z" class="cls-12"/><path d="M524.48 433.96H399.54l1.21-8.27h122.52l1.21 8.27z" class="cls-13"/><circle cx="411.32" cy="435.2" r="4.38" class="cls-13"/><circle cx="424.57" cy="441.05" r="2.24" class="cls-13"/><circle cx="415.12" cy="449.32" r="2.92" class="cls-13"/><path d="M531.15 486.66H391.38a11.27 11.27 0 0 1-10.46-15.44l25.91-65a2 2 0 0 1 1.33-1.19l52.58-14.44a1.91 1.91 0 0 1 1.06 0L514.38 405a2 2 0 0 1 1.33 1.19l25.9 65a11.27 11.27 0 0 1-10.46 15.43Zm-121-78-25.54 64.09a7.26 7.26 0 0 0 6.74 10h139.8a7.26 7.26 0 0 0 6.74-10l-25.53-64.09-51.09-14Z" class="cls-2"/><path d="M237.36 82.58h440.79a17.1 17.1 0 0 1 17.1 17.1v310.48A16.24 16.24 0 0 1 679 426.4H236.51a16.24 16.24 0 0 1-16.24-16.24V99.68a17.1 17.1 0 0 1 17.09-17.1Z" style="fill:#546b76"/><path d="M694.71 99.67v10.54a17.1 17.1 0 0 0-17.09-17.1H236.83a17.11 17.11 0 0 0-17.1 17.1V99.67a17.1 17.1 0 0 1 17.1-17.09h440.79a17.09 17.09 0 0 1 17.09 17.09Z" class="cls-16"/><path d="M695.25 370.4v39.76A16.24 16.24 0 0 1 679 426.4H236.51a16.24 16.24 0 0 1-16.24-16.24V370.4Z" class="cls-12"/><path d="M220.47 369.56h474.98v8.76H220.47z" class="cls-13"/><path d="M695.45 361.64v8.76h-475s-3.8-24.52.8-23.69c80.94 14.6 474.2 14.93 474.2 14.93Z" class="cls-17"/><path d="M244.71 109.83H671.2v237.2H244.71z" style="fill:#b4e4f9"/><path d="M220.47 267.05a2 2 0 0 1-2-2V147a2 2 0 0 1 4 0v118.05a2 2 0 0 1-2 2ZM695.45 226.92a2 2 0 0 1-2-2v-17.46a2 2 0 0 1 4 0v17.46a2 2 0 0 1-2 2ZM695.45 197.35a2 2 0 0 1-2-2v-32.89a2 2 0 0 1 4 0v32.89a2 2 0 0 1-2 2ZM695.45 151.27a2 2 0 0 1-2-2V99.68a15.12 15.12 0 0 0-15.1-15.1H237.56a15.12 15.12 0 0 0-15.09 15.1V134a2 2 0 0 1-4 0V99.68a19.12 19.12 0 0 1 19.09-19.1h440.79a19.12 19.12 0 0 1 19.1 19.1v49.59a2 2 0 0 1-2 2ZM695.45 372.4h-475a2 2 0 0 1 0-4h475a2 2 0 0 1 0 4Z" class="cls-2"/><path d="M244.71 337.3H671.2v9.74H244.71z" class="cls-19"/><path d="M427.38 347.03h-9.74l60-237.2h9.74l-60 237.2z" style="opacity:.59;fill:#fff"/><path d="M405.96 347.03h-9.74l60-237.2h9.74l-60 237.2z" style="opacity:.3;fill:#fff"/><path d="M470.93 347.03h-29.74l60-237.2h29.74l-60 237.2z" class="cls-4"/><path d="M244.71 210.76a2 2 0 0 1-2-2v-23a2 2 0 0 1 4 0v23a2 2 0 0 1-2 2Z" class="cls-2"/><circle cx="632.51" cy="359.56" r="2.49" class="cls-17"/><circle cx="637.19" cy="357.81" r=".74" class="cls-17"/><circle cx="633.56" cy="354.78" r=".74" class="cls-17"/><circle cx="626.42" cy="354.69" r="1.71" class="cls-17"/><circle cx="623.99" cy="359.75" r="1.51" class="cls-17"/><circle cx="619.7" cy="356.29" r=".77" class="cls-17"/><circle cx="621.41" cy="352.87" r=".94" class="cls-17"/><circle cx="614.06" cy="358.68" r="1.62" class="cls-17"/><circle cx="642.93" cy="356.53" r="1.01" class="cls-17"/><circle cx="639.13" cy="353.45" r=".58" class="cls-17"/><circle cx="643.59" cy="351.36" r="1.01" class="cls-17"/><circle cx="638.95" cy="355.7" r=".7" class="cls-17"/><circle cx="635.49" cy="351.36" r=".79" class="cls-17"/><circle cx="630.51" cy="350.2" r="1.16" class="cls-17"/><circle cx="631.45" cy="353.12" r=".25" class="cls-17"/><circle cx="630.38" cy="355.54" r=".37" class="cls-17"/><circle cx="642.89" cy="360.69" r="1.62" class="cls-17"/><circle cx="649.4" cy="358.78" r="1.25" class="cls-17"/><circle cx="655.77" cy="360.86" r="2.63" class="cls-17"/><circle cx="663.75" cy="361.05" r="2.81" class="cls-17"/><circle cx="668.74" cy="359.91" r="1.23" class="cls-17"/><circle cx="664.19" cy="355.96" r=".44" class="cls-17"/><circle cx="658.08" cy="353.82" r=".95" class="cls-17"/><circle cx="654.1" cy="352.49" r=".96" class="cls-17"/><circle cx="650.71" cy="353.68" r="1.31" class="cls-17"/><circle cx="647.19" cy="354.78" r=".96" class="cls-17"/><circle cx="656.56" cy="356.86" r=".57" class="cls-17"/><circle cx="582.81" cy="333.66" r="4.75" class="cls-19"/><circle cx="591.73" cy="330.33" r="1.41" class="cls-19"/><circle cx="584.82" cy="324.56" r="1.42" class="cls-19"/><circle cx="571.23" cy="324.39" r="3.25" class="cls-19"/><circle cx="566.6" cy="334.02" r="2.88" class="cls-19"/><circle cx="558.44" cy="327.45" r="1.47" class="cls-19"/><circle cx="561.71" cy="320.93" r="1.79" class="cls-19"/><circle cx="547.71" cy="331.99" r="3.07" class="cls-19"/><circle cx="602.66" cy="327.9" r="1.92" class="cls-19"/><circle cx="595.43" cy="322.04" r="1.1" class="cls-19"/><circle cx="603.91" cy="318.06" r="1.92" class="cls-19"/><circle cx="595.07" cy="326.31" r="1.33" class="cls-19"/><circle cx="588.49" cy="318.06" r="1.5" class="cls-19"/><circle cx="579.03" cy="315.85" r="2.21" class="cls-19"/><circle cx="580.8" cy="321.41" r=".48" class="cls-19"/><circle cx="578.78" cy="326.02" r=".71" class="cls-19"/><circle cx="602.58" cy="335.82" r="3.08" class="cls-19"/><circle cx="614.96" cy="332.19" r="2.38" class="cls-19"/><circle cx="627.09" cy="336.15" r="5" class="cls-19"/><circle cx="642.28" cy="336.5" r="5.36" class="cls-19"/><circle cx="651.76" cy="334.33" r="2.33" class="cls-19"/><circle cx="643.12" cy="326.81" r=".83" class="cls-19"/><circle cx="631.49" cy="322.75" r="1.81" class="cls-19"/><circle cx="623.91" cy="320.22" r="1.82" class="cls-19"/><circle cx="617.46" cy="322.48" r="2.5" class="cls-19"/><circle cx="610.76" cy="324.56" r="1.82" class="cls-19"/><circle cx="628.59" cy="328.53" r="1.08" class="cls-19"/><circle cx="292.42" cy="386.25" r="2.24" class="cls-13"/><path d="M258.88 158.17a1.52 1.52 0 0 1-.59-.12 1.5 1.5 0 0 1-.78-2l14-32.43a1.5 1.5 0 0 1 2.75 1.19l-14 32.43a1.49 1.49 0 0 1-1.38.93ZM270.71 151.74a1.44 1.44 0 0 1-.6-.13 1.5 1.5 0 0 1-.78-2l7-16.21a1.5 1.5 0 0 1 2.76 1.19l-7 16.21a1.48 1.48 0 0 1-1.38.94Z" class="cls-2"/><circle cx="268.28" cy="157.19" r="2.39" class="cls-2"/><path d="M308.05 95h-47.57a1.5 1.5 0 0 1 0-3h47.57a1.5 1.5 0 0 1 0 3ZM328.08 95h-9.56a1.5 1.5 0 0 1 0-3h9.56a1.5 1.5 0 0 1 0 3ZM695.25 250.3a2 2 0 0 1-2-2v-9.39a2 2 0 1 1 4 0v9.39a2 2 0 0 1-2 2Z" class="cls-2"/><circle cx="278.55" cy="381.39" r="7.45" class="cls-13"/><circle cx="286.48" cy="396.01" r="3.7" class="cls-13"/><circle cx="264.99" cy="388.84" r="3.68" class="cls-13"/><circle cx="457.76" cy="399.72" r="13.46" class="cls-4"/><path d="M458 417.65a17.25 17.25 0 1 1 0-34.49 2 2 0 0 1 0 4 13.24 13.24 0 1 0 11.32 6.37 2 2 0 0 1 3.42-2.08 17.25 17.25 0 0 1-14.74 26.2ZM394 473.11a1.39 1.39 0 0 1-.53-.1 1.48 1.48 0 0 1-.87-1.93l3.72-9.83a1.5 1.5 0 0 1 2.81 1.06l-3.73 9.83a1.51 1.51 0 0 1-1.4.97ZM401.33 453.74a1.6 1.6 0 0 1-.53-.09 1.5 1.5 0 0 1-.87-1.94l2.21-5.84a1.5 1.5 0 1 1 2.8 1.06l-2.21 5.84a1.51 1.51 0 0 1-1.4.97Z" class="cls-2"/><path d="M341.79 341.8H297.1a4.5 4.5 0 0 1 0-9h44.69a4.5 4.5 0 0 1 0 9Z" class="cls-19"/><path d="M506 98h-44.7a4.5 4.5 0 0 1 0-9H506a4.5 4.5 0 0 1 0 9ZM605.16 98h-20.69a4.5 4.5 0 0 1 0-9h20.69a4.5 4.5 0 0 1 0 9Z" class="cls-16"/><rect width="896.23" height="26.88" x="8.29" y="474.96" rx="13.44" style="fill:#ffccc0"/><path d="M904.52 489a13.45 13.45 0 0 1-13.44 13.44H21.73A13.44 13.44 0 0 1 8.29 489a13.3 13.3 0 0 1 1.81-6.72A13.41 13.41 0 0 0 21.73 489h869.35a13.49 13.49 0 0 0 11.64-6.72 13.29 13.29 0 0 1 1.8 6.72Z" class="cls-23"/><path d="M165.42 483h-66.6a3.5 3.5 0 0 1 0-7h66.6a3.5 3.5 0 1 1 0 7ZM201.31 483h-16.6a3.5 3.5 0 1 1 0-7h16.6a3.5 3.5 0 0 1 0 7Z" class="cls-24"/><path d="M668.49 491.9h-66.6a3.5 3.5 0 0 1 0-7h66.6a3.5 3.5 0 0 1 0 7ZM704.39 491.9h-16.6a3.5 3.5 0 0 1 0-7h16.6a3.5 3.5 0 0 1 0 7Z" class="cls-23"/><path d="M422.29 501.84h-66.6a3.5 3.5 0 0 1 0-7h66.6a3.5 3.5 0 0 1 0 7ZM458.19 501.84h-16.6a3.5 3.5 0 0 1 0-7h16.6a3.5 3.5 0 0 1 0 7ZM82.67 501.84H16.06a3.5 3.5 0 0 1 0-7h66.61a3.5 3.5 0 1 1 0 7ZM118.56 501.84H102a3.5 3.5 0 1 1 0-7h16.6a3.5 3.5 0 0 1 0 7ZM859.23 501.84h-66.6a3.5 3.5 0 0 1 0-7h66.6a3.5 3.5 0 0 1 0 7ZM895.13 501.84h-16.61a3.5 3.5 0 0 1 0-7h16.61a3.5 3.5 0 0 1 0 7Z" class="cls-25"/><path d="M891.08 503.84H21.73a15.44 15.44 0 0 1 0-30.88H263.1a2 2 0 0 1 0 4H21.73a11.44 11.44 0 0 0 0 22.88h869.35a11.44 11.44 0 0 0 0-22.88H332.16a2 2 0 0 1 0-4h558.92a15.44 15.44 0 0 1 0 30.88Z" class="cls-2"/><path d="M295.1 477h-14.44a2 2 0 0 1 0-4h14.44a2 2 0 0 1 0 4ZM315.26 477h-7.43a2 2 0 0 1 0-4h7.43a2 2 0 0 1 0 4ZM803.23 475.65a2 2 0 0 1-2-2 21.68 21.68 0 0 0-32-19.06 2 2 0 0 1-1.9-3.52 25.68 25.68 0 0 1 37.87 22.58 2 2 0 0 1-1.97 2ZM755.91 475.65a2 2 0 0 1-2-2 25.67 25.67 0 0 1 5.71-16.14 2 2 0 1 1 3.1 2.52 21.72 21.72 0 0 0-4.81 13.62 2 2 0 0 1-2 2Z" class="cls-2"/><path d="M133.12 388.84h5.67v86.12h-5.67z" class="cls-4"/><path d="M142.77 388.84h2.72v86.12h-2.72z" style="opacity:.39;fill:#fff"/><path d="M147 380.33a1.5 1.5 0 0 1-1.5-1.5v-22.44a11.22 11.22 0 0 1 11.21-11.2 9.71 9.71 0 0 0 0-19.41 1.5 1.5 0 1 1 0-3 12.71 12.71 0 0 1 0 25.41 8.21 8.21 0 0 0-8.21 8.2v22.44a1.5 1.5 0 0 1-1.5 1.5ZM134.79 370.44a1.5 1.5 0 0 1-1.5-1.5v-22.19a1.5 1.5 0 0 1 3 0v22.19a1.5 1.5 0 0 1-1.5 1.5Z" class="cls-2"/><path d="M159 382.16a1.5 1.5 0 0 1-1.5-1.5v-22.2a1.5 1.5 0 0 1 3 0v22.2a1.5 1.5 0 0 1-1.5 1.5Z" class="cls-2"/><path d="M163.08 415.65a2.79 2.79 0 0 1-2.79-2.79v-23.5h5.58v23.5a2.79 2.79 0 0 1-2.79 2.79ZM176.91 390.87a4.92 4.92 0 0 1-9.83 0" class="cls-27"/><rect width="6.57" height="24.8" x="120.17" y="400.15" rx="3.28" style="opacity:.23;fill:#fff"/><path d="M241.78 310.53a2.5 2.5 0 0 1-2.5-2.5v-50.25a2.5 2.5 0 0 1 5 0V308a2.5 2.5 0 0 1-2.5 2.53ZM673.72 200.41a2.5 2.5 0 0 1-2.5-2.5v-50.24a2.5 2.5 0 1 1 5 0v50.24a2.5 2.5 0 0 1-2.5 2.5ZM673.72 320.21a2.5 2.5 0 0 1-2.5-2.5v-50.25a2.5 2.5 0 0 1 5 0v50.25a2.5 2.5 0 0 1-2.5 2.5Z" class="cls-17"/><path d="M667.62 271.91a3.5 3.5 0 0 1-3.5-3.5v-50.25a3.5 3.5 0 1 1 7 0v50.25a3.5 3.5 0 0 1-3.5 3.5ZM667.62 133.62a3.5 3.5 0 0 1-3.5-3.5v-10.24a3.5 3.5 0 0 1 7 0v10.24a3.5 3.5 0 0 1-3.5 3.5ZM248 252.22a3.5 3.5 0 0 1-3.5-3.5v-10.24a3.5 3.5 0 0 1 7 0v10.24a3.5 3.5 0 0 1-3.5 3.5Z" class="cls-19"/><path d="M598.27 426.05H588a3.5 3.5 0 0 1 0-7h10.25a3.5 3.5 0 0 1 0 7Z" class="cls-13"/><path d="M248 327.76a3.5 3.5 0 0 1-3.5-3.5V314a3.5 3.5 0 0 1 7 0v10.24a3.5 3.5 0 0 1-3.5 3.52ZM248 127a3.5 3.5 0 0 1-3.5-3.5v-10.25a3.5 3.5 0 0 1 7 0v10.25a3.5 3.5 0 0 1-3.5 3.5Z" class="cls-19"/><path d="M671.2 348.53H244.71a1.5 1.5 0 0 1-1.5-1.5V219.71a1.5 1.5 0 0 1 3 0v125.82H669.7v-234.2H246.21v59.26a1.5 1.5 0 0 1-3 0v-60.76a1.5 1.5 0 0 1 1.5-1.5H671.2a1.5 1.5 0 0 1 1.5 1.5V347a1.5 1.5 0 0 1-1.5 1.53Z" class="cls-2"/><path d="M149.15 390.21h5.12v12a2.56 2.56 0 0 1-2.56 2.56 2.56 2.56 0 0 1-2.56-2.56v-12Z" class="cls-27"/><path d="M175.58 476.46h-56a7.44 7.44 0 0 1-7.44-7.43v-26.5a2 2 0 0 1 4 0V469a3.44 3.44 0 0 0 3.44 3.43h56A3.44 3.44 0 0 0 179 469v-73.91a3.45 3.45 0 0 0-3.44-3.44h-56a3.45 3.45 0 0 0-3.44 3.44v21.05a2 2 0 0 1-4 0v-21.05a7.45 7.45 0 0 1 7.44-7.44h56a7.45 7.45 0 0 1 7.44 7.44V469a7.44 7.44 0 0 1-7.42 7.46Z" class="cls-2"/><path d="M114.14 435a2 2 0 0 1-2-2v-8.47a2 2 0 0 1 4 0V433a2 2 0 0 1-2 2Z" class="cls-2"/><circle cx="866.08" cy="354.03" r="7.89" style="fill:#dc166d"/><path d="M866.08 363.42a9.39 9.39 0 1 1 9.39-9.39 9.4 9.4 0 0 1-9.39 9.39Zm0-15.77a6.39 6.39 0 1 0 6.39 6.38 6.38 6.38 0 0 0-6.39-6.38ZM850 392.83h-.18a1.49 1.49 0 0 1-1.31-1.66l2.16-18.68-4.77-.59a1.5 1.5 0 0 1 .36-3l6.26.77a1.51 1.51 0 0 1 1.3 1.67l-2.33 20.15a1.5 1.5 0 0 1-1.49 1.34Z" class="cls-2"/><path d="M680 428.48h-22a4 4 0 0 1 0-8h22c4.45 0 9.51-4.78 9.51-9v-12.41a4 4 0 1 1 8 0v12.43c-.05 8.57-8.72 16.98-17.51 16.98ZM276.87 429.57h-22a4 4 0 0 1 0-8h22a4 4 0 0 1 0 8Z" class="cls-4"/><path d="M679.21 428.4h-442.5a18.26 18.26 0 0 1-18.24-18.24V277.51a2 2 0 0 1 4 0v132.65a14.25 14.25 0 0 0 14.24 14.24h442.5a14.26 14.26 0 0 0 14.24-14.24V262a2 2 0 0 1 4 0v148.16a18.26 18.26 0 0 1-18.24 18.24Z" class="cls-2"/></g></g></svg>