<svg xmlns="http://www.w3.org/2000/svg" viewBox="0 0 159.26 110.37"><defs><style>.cls-1{fill:#fff}.cls-2{fill:#dbcec8}.cls-3,.cls-4{fill:none;stroke:#2e2f3e;stroke-miterlimit:10}.cls-3{stroke-linecap:round;stroke-width:3px}.cls-4{stroke-width:5px}</style></defs><g id="Layer_2" data-name="Layer 2"><g id="Layer_1-2" data-name="Layer 1"><path d="M156.17 26v58.71a8 8 0 0 1-8 8.05h-14.9l-7.65 12a1 1 0 0 1-1.77 0l-7.15-12H52a8 8 0 0 1-8-8V26a8 8 0 0 1 8-8h96.14a8 8 0 0 1 8.03 8Z" class="cls-1"/><path d="M120.45 63.56V18.9l-6.59-.73-3.36 57.4-4.24 2.19-3.5.59-7.41-.22 1.88.4-12.72-2.65-31.78 1A3.74 3.74 0 0 1 49 73.17v-63a7.79 7.79 0 0 1 .41-2.52 8 8 0 0 0-5.71 7.69v58.71a8 8 0 0 0 8 8h15.74L90.83 82l8.18.08h9.68c3.8 0 9.87 0 11.76-3.33s0-9.67 0-15.19Z" class="cls-2"/><circle cx="54.48" cy="75.77" r="5.18" class="cls-2"/><circle cx="63.71" cy="71.43" r="2.31" class="cls-2"/><circle cx="111.22" cy="74.88" r="1.79" class="cls-2"/><path d="M146.2 39.2H61.11M146.2 52.81h-32.09M146.2 66.42H98.11" class="cls-3"/><path d="M156.76 22.4v64.77a5 5 0 0 1-5 5h-17.91l-8.55 13.44-8-13.44H49.54a5 5 0 0 1-5-5V25.45a8 8 0 0 1 8-8h99.18a5 5 0 0 1 5.04 4.95Z" class="cls-4"/><path d="M3.08 11.12v58.69a8.05 8.05 0 0 0 8.05 8H26l7.64 12a1.05 1.05 0 0 0 1.78 0l7.15-12h64.71a8 8 0 0 0 8-8V11.13a8 8 0 0 0-8-8H11.12a8 8 0 0 0-8.04 7.99Z" class="cls-1"/><path d="M54.43 70.92h50.05a3.74 3.74 0 0 0 3.74-3.74v-63A1.37 1.37 0 0 1 110.41 3a8 8 0 0 1 3.11 6.34v65.38a1.38 1.38 0 0 1-1.38 1.38H89.77L66.38 76l-8.18.08H43.34" class="cls-2"/><circle cx="104.78" cy="66.86" r="5.18" class="cls-2"/><circle cx="95.54" cy="62.53" r="2.31" class="cls-2"/><circle cx="55.18" cy="69.34" r="4.01" class="cls-2"/><circle cx="48.03" cy="65.98" r="1.79" class="cls-2"/><path d="M13.06 24.3h85.09M13.06 37.91h32.09M13.06 51.52h48.09" class="cls-3"/><path d="M2.5 3.88v72a1.37 1.37 0 0 0 1.38 1.37h20.77a1.37 1.37 0 0 1 1.16.64L34 90.71l7.61-12.77a1.39 1.39 0 0 1 1.18-.67h70.59a1.37 1.37 0 0 0 1.38-1.37v-72a1.38 1.38 0 0 0-1.38-1.38H3.88A1.38 1.38 0 0 0 2.5 3.88Z" class="cls-4"/></g></g></svg>