<svg xmlns="http://www.w3.org/2000/svg" viewBox="0 0 309.81 199.84"><defs><style>.cls-1,.cls-10,.cls-12,.cls-18,.cls-22,.cls-25,.cls-27,.cls-29,.cls-3,.cls-30,.cls-31,.cls-32,.cls-33,.cls-36,.cls-37,.cls-38,.cls-39,.cls-43,.cls-44,.cls-45,.cls-48,.cls-50,.cls-51,.cls-60,.cls-61,.cls-62,.cls-63,.cls-70,.cls-71,.cls-72,.cls-73,.cls-74,.cls-75,.cls-78,.cls-79,.cls-86,.cls-87,.cls-92,.cls-93{fill:none}.cls-1,.cls-22,.cls-25{stroke:#000201}.cls-1,.cls-10,.cls-12,.cls-18,.cls-22,.cls-25,.cls-27,.cls-29,.cls-3,.cls-30,.cls-31,.cls-32,.cls-33,.cls-36,.cls-37,.cls-38,.cls-39,.cls-43,.cls-44,.cls-45,.cls-48,.cls-50,.cls-51,.cls-60,.cls-61,.cls-62,.cls-63,.cls-70,.cls-71,.cls-72,.cls-73,.cls-74,.cls-75,.cls-78,.cls-79,.cls-87,.cls-92,.cls-93{stroke-linecap:round;stroke-linejoin:round}.cls-1{stroke-width:.77px}.cls-2{fill:#2a3e44}.cls-10,.cls-12,.cls-29,.cls-3,.cls-30,.cls-31,.cls-32,.cls-33,.cls-39,.cls-43,.cls-48,.cls-60,.cls-61,.cls-63,.cls-72,.cls-79,.cls-87,.cls-92{stroke:#232144}.cls-3,.cls-45{stroke-width:.75px}.cls-4{fill:#536b77}.cls-6{fill:#232144}.cls-7{fill:#708993}.cls-16,.cls-17,.cls-41,.cls-8{fill:#fff}.cls-9{fill:#9cb5bc}.cls-10{stroke-width:.5px}.cls-12{stroke-width:.76px}.cls-14{fill:#dcf0ff}.cls-15{fill:#8bd2fc}.cls-16,.cls-17{opacity:.6;isolation:isolate}.cls-17{opacity:.8}.cls-18,.cls-27,.cls-36,.cls-38,.cls-45,.cls-50,.cls-51,.cls-71{stroke:#fff}.cls-18,.cls-50,.cls-51,.cls-70,.cls-73,.cls-74,.cls-78{stroke-width:2px}.cls-18{opacity:.7}.cls-19{fill:#429dc1}.cls-20{fill:#e0f3fc}.cls-22{stroke-width:1.01px}.cls-24{fill:#000201}.cls-25{stroke-width:.65px}.cls-27{stroke-width:1.12px}.cls-29{stroke-width:.83px}.cls-31{stroke-width:.58px}.cls-32{stroke-width:.38px}.cls-33{stroke-width:.55px}.cls-35{fill:#00abaf}.cls-36,.cls-37{stroke-width:.6px}.cls-37{stroke:#00abaf}.cls-38{stroke-width:1.07px}.cls-39{stroke-width:.55px}.cls-41{opacity:.63}.cls-43{stroke-width:.31px}.cls-44,.cls-62{stroke:#8bd2fc}.cls-48{stroke-width:.97px}.cls-50{opacity:.38}.cls-60{stroke-width:.97px}.cls-61{stroke-width:.44px}.cls-62{stroke-width:1.16px;opacity:.44}.cls-63{stroke-width:.67px}.cls-65{fill:#3b345b}.cls-66{fill:#47b2ce}.cls-67{fill:#ffe299}.cls-68{fill:#f93e4c}.cls-69{fill:#26f7ab}.cls-70,.cls-75{stroke:#31e3e8}.cls-71{stroke-width:1.5px}.cls-72{stroke-width:1.01px}.cls-73{stroke:#f96e90}.cls-74{stroke:#ffe299}.cls-75{stroke-width:.95px}.cls-76{fill:#0692b2}.cls-77{fill:#78e3f4}.cls-78{stroke:#0692b2}.cls-79{stroke-width:.39px}.cls-81{fill:#9399bc}.cls-83{fill:#f4ad5e}.cls-84{fill:#ffc68d}.cls-85{fill:#e28c37}.cls-86{stroke:#ffdcc0;stroke-miterlimit:10;stroke-width:.67px}.cls-87{stroke-width:.75px}.cls-89{fill:#f8d76e}.cls-92{stroke-width:.62px}.cls-93{stroke:#18364c}</style></defs><g id="Layer_2" data-name="Layer 2"><g id="Layer_2-2" data-name="Layer 2"><path d="M180.86 191.29a7.79 7.79 0 0 1-.36 1.79 6.13 6.13 0 0 1 .36-1.79Z" class="cls-1"/><path d="M180.5 193.08a6.13 6.13 0 0 1 .36-1.79 7.79 7.79 0 0 1-.36 1.79ZM181.85 189.25a12.5 12.5 0 0 0-1 2 5.24 5.24 0 0 0 0-1 6.54 6.54 0 0 0-.14-1.24 4 4 0 0 1 1.14.24Z" class="cls-1"/><path d="M180.86 191.29a7.79 7.79 0 0 1-.36 1.79 6.13 6.13 0 0 1 .36-1.79Z" class="cls-1"/><rect width="33.59" height="7.92" x="174.81" y="167.19" class="cls-2" rx=".47"/><path d="M208.37 171.61v3a.46.46 0 0 1-.44.46h-32.68a.47.47 0 0 1-.44-.46v-7" class="cls-3"/><rect width="31.74" height="7.92" x="170.81" y="167.19" class="cls-4" rx=".47"/><rect width="33.59" height="7.92" x="174.81" y="176.66" class="cls-2" rx=".47"/><path d="M208.37 182.84v1.27a.44.44 0 0 1-.41.47h-32.71a.44.44 0 0 1-.44-.44v-7a.45.45 0 0 1 .42-.47h32.7a.44.44 0 0 1 .44.44v3.53M208.37 192.21v1.27a.44.44 0 0 1-.41.47h-32.71a.44.44 0 0 1-.44-.44v-7a.45.45 0 0 1 .42-.47h32.7a.44.44 0 0 1 .44.44V190" class="cls-3"/><rect width="31.74" height="7.92" x="170.81" y="176.66" class="cls-4" rx=".47"/><rect width="33.59" height="7.92" x="174.81" y="186.13" class="cls-2" rx=".47"/><path d="M174.81 193.61v-7.01" style="stroke-width:.58px;stroke-linecap:round;stroke-linejoin:round;stroke:#000201;fill:none"/><rect width="31.74" height="7.92" x="170.81" y="186.13" class="cls-4" rx=".47"/><path d="M172.85 175.11h33.92v1.55h-33.92zM172.85 184.58h33.92v1.55h-33.92z" class="cls-6"/><path d="m192.59 167.17-3 7.83h-18.31a.47.47 0 0 1-.47-.47v-7a.46.46 0 0 1 .47-.35ZM189.05 176.55l-3 7.92h-14.77a.47.47 0 0 1-.47-.44v-7a.47.47 0 0 1 .47-.47h17.77ZM185.6 186l-3.06 7.92h-11.26a.47.47 0 0 1-.47-.47v-7a.5.5 0 0 1 .47-.47Z" class="cls-7"/><circle cx="175.78" cy="167.19" r=".55" class="cls-6"/><path d="M179.34 176.55h.66l-2.98 7.95h-.66l2.98-7.95zM175.81 186.04h.63l-2.95 7.9h-.66l2.98-7.9zM183.56 167.08l-2.98 7.92h-.66l2.98-7.92h.66z" class="cls-8"/><path d="M180.86 176.55h1.27l-2.98 7.95h-1.27l2.98-7.95zM177.3 186.04h1.29l-2.98 7.9h-1.27l2.96-7.9zM185.69 167.08l-2.98 7.92h-1.3l2.98-7.92h1.3z" class="cls-9"/><path d="M202.55 171.28v3.37a.46.46 0 0 1-.44.46h-30.83a.5.5 0 0 1-.47-.46v-7a.47.47 0 0 1 .47-.47h2.54M202.55 182.21v1.9a.44.44 0 0 1-.41.47h-30.86a.47.47 0 0 1-.47-.47h0v-7a.47.47 0 0 1 .47-.47h30.88a.45.45 0 0 1 .45.44v2.49M202.55 190.1v3.51a.44.44 0 0 1-.44.44h-30.83a.48.48 0 0 1-.47-.44v-7.12a.5.5 0 0 1 .47-.47h30.88a.47.47 0 0 1 .45.47v1.24M177.68 167.17h24.48a.44.44 0 0 1 .45.44v1.49" class="cls-3"/><path d="M178.74 169.76v2.13M177.57 169.76v2.13M176.4 169.76v2.13M174.05 169.76v2.13M175.22 169.76v2.13M178.74 179.45v2.13M177.57 179.45v2.13M176.4 179.45v2.13M174.05 179.45v2.13M175.22 179.45v2.13M178.74 188.91v2.13M177.57 188.91v2.13M176.4 188.91v2.13M174.05 188.91v2.13M175.22 188.91v2.13" class="cls-10"/><path d="M204.24 167.17h4.16v2.59" class="cls-3"/><path d="M295.48 176.03H266.6v-37.56h28.88z" class="cls-8"/><path d="M264.59 155.93h37.16v2.24h-37.16z" style="fill:#abbcd3" transform="rotate(-90 283.175 157.055)"/><path d="M292 141.94h-14.41M292 143.78h-9.23M292 145.7h-5.56M281.3 145.7h-1.98M292 147.49h-7.21M292 150.26h-14.41M292 152.09h-9.23M292 154.02h-5.56M281.3 154.02h-1.98M292 155.81h-14.41M292 158.48h-14.41M292 160.32h-9.23M295.48 176.03H266.6v-37.56h28.88z" class="cls-12"/><path d="M189.23 123.44h90.57a2.44 2.44 0 0 1 2.41 2.46V186a2.43 2.43 0 0 1-2.41 2.45h-93V125.9a2.44 2.44 0 0 1 2.43-2.46Z" style="fill:#d7def4"/><path d="M191.94 129.41h86.1v55.22h-86.1z" class="cls-14"/><path d="M192 129.41h86.1v1.66H192z" class="cls-15"/><path d="M242.43 184.01h-2.11l13.46-55.13h2.12l-13.47 55.13z" class="cls-16"/><path d="M251.78 184.01h-6.61l13.47-55.13h6.6l-13.46 55.13z" class="cls-17"/><path d="M239.15 184.01h-2.12l13.47-55.13h2.11l-13.46 55.13z" class="cls-16"/><path d="M216.66 124.63h32.56" class="cls-18"/><path d="M261 147.47a7.83 7.83 0 0 0-1.25-3.4c-.64-1-1.41-1.88-2-2.92-1.08-2.05-1-4.51-.91-6.75a1.13 1.13 0 0 0-2.25 0 17.13 17.13 0 0 0 .81 7 15.32 15.32 0 0 0 1.85 3.05 6.62 6.62 0 0 1 1.46 3 1.16 1.16 0 0 0 1.13 1.12 1.13 1.13 0 0 0 1.12-1.12Z" class="cls-6"/><path d="M257.08 142.44a5.12 5.12 0 0 0 3.55-1.75 19.09 19.09 0 0 0 2.2-3.34 1.12 1.12 0 1 0-1.94-1.13c-.31.5-.59 1-.89 1.53-.15.24-.29.48-.45.71a2.13 2.13 0 0 1-.25.34c.2-.19 0 0 0 0l-.13.15a5.39 5.39 0 0 1-.53.54s-.1.11-.15.12l.08-.06-.09.07-.32.2-.33.17c-.22.11.16-.05 0 0l-.18.06-.39.1c-.14 0 .28 0 0 0h-.22a1.13 1.13 0 1 0 0 2.25Z" class="cls-6"/><path d="M72.54 179.63h6.97v14.49h-6.97z" class="cls-19"/><path d="M33.42 25.17H124a2.44 2.44 0 0 1 2.42 2.46v60.06a2.43 2.43 0 0 1-2.42 2.45H31V27.63a2.44 2.44 0 0 1 2.42-2.46Z" class="cls-20"/><path d="M31.13 86.98h95.15v2.12H31.13z" class="cls-15"/><path d="M55 25.31h69.16a2.44 2.44 0 0 1 2.41 2.46v62.51H31.21V78.44" style="stroke-width:1.02px;stroke-linecap:round;stroke-linejoin:round;stroke:#000201;fill:none"/><path d="M31.21 64.18V28.73a2.41 2.41 0 0 1 2.41-2.41H41M31.21 73.95v-5.58" class="cls-22"/><path d="M36.18 31.14h86.1v55.22h-86.1z" class="cls-14"/><path d="M36.18 31.14h86.1v1.66h-86.1z" class="cls-15"/><path d="M36.52 85.59h85.59v.35H36.52z" style="fill:#cfabf4"/><path d="M36.13 58.29v-9.44M44.24 26.26h7.37" class="cls-22"/><path d="M32.89 32.12a.2.2 0 0 1-.11 0 .27.27 0 0 1-.22-.32l.81-3.8a.27.27 0 0 1 .33-.21.28.28 0 0 1 .21.33l-.81 3.78a.27.27 0 0 1-.21.22ZM34.54 30h-.11a.27.27 0 0 1-.22-.32l.43-2a.28.28 0 0 1 .33-.22.28.28 0 0 1 .22.33l-.43 2a.28.28 0 0 1-.22.21Z" class="cls-24"/><path d="M52.67 28.33h2.7M45.99 28.33h5.24M114.61 28.91h2.7M107.93 28.91h5.24" class="cls-25"/><path d="M21.07 89.65h114a6.33 6.33 0 0 1-6.3 6.35H27.4a6.34 6.34 0 0 1-6.33-6.34Z" class="cls-20"/><path d="M133.78 92.82A4.48 4.48 0 0 1 129 96H27.62a5.38 5.38 0 0 1-5.57-3.07Z" class="cls-15"/><path d="M20.89 89.4h114a6.33 6.33 0 0 1-6.33 6.33H27.22a6.33 6.33 0 0 1-6.33-6.33Z" style="stroke-width:1.1px;stroke-linecap:round;stroke-linejoin:round;stroke:#000201;fill:none"/><path d="M71.37 92.82h10.46" class="cls-25"/><path d="M86.62 85.74H84.5l13.47-55.13h2.11L86.62 85.74z" class="cls-16"/><path d="M95.96 85.74h-6.6l13.46-55.13h6.61L95.96 85.74z" class="cls-17"/><path d="M83.33 85.74h-2.11l13.46-55.13h2.12L83.33 85.74z" class="cls-16"/><path d="M36.13 45.6V30.69h86.1v55.22h-86.1V61.16" class="cls-22"/><circle cx="40.56" cy="38.11" r="1.74" class="cls-8"/><circle cx="43.54" cy="41.1" r="1.17" class="cls-8"/><circle cx="40.42" cy="41.18" r=".71" class="cls-8"/><path d="M29.44 92.66h4.2" class="cls-27"/><circle cx="27.19" cy="92.66" r=".75" class="cls-8"/><circle cx="78.9" cy="28.49" r=".73" class="cls-25"/><path d="M59.5 134.15H46.23" style="stroke:#429dc1;stroke-width:.66px;stroke-linecap:round;stroke-linejoin:round;fill:none"/><path d="M67.68 182.01h11.83v12.12H67.68z" class="cls-29"/><path d="M63.59 182.01h11.83v12.12H63.59z" class="cls-20"/><path d="M63.59 182.27h11.83v5.31H63.59z" class="cls-15"/><path d="M63.59 182.01h11.83v12.12H63.59z" class="cls-29"/><path d="M50.74 120.46h69.16a2.41 2.41 0 0 1 2.42 2.41v59.76a1.8 1.8 0 0 1-1.8 1.79h-91.8a1.79 1.79 0 0 1-1.8-1.79v-9.87" class="cls-19"/><path d="M50.74 120.46h69.16a2.41 2.41 0 0 1 2.42 2.41v59.76a1.8 1.8 0 0 1-1.8 1.79h-91.8a1.79 1.79 0 0 1-1.8-1.79v-9.87" class="cls-30"/><path d="M25.79 120.32h90.57a2.42 2.42 0 0 1 2.42 2.42v59.13a2.41 2.41 0 0 1-2.42 2.41h-93v-61.54a2.41 2.41 0 0 1 2.43-2.42Z" class="cls-20"/><path d="m23.77 182.27 95 .16a1.68 1.68 0 0 1-1.7 1.69L25.46 184a1.69 1.69 0 0 1-1.69-1.69Z" class="cls-15"/><path d="M47.41 120.46h69.16a2.41 2.41 0 0 1 2.41 2.41v59.76a1.79 1.79 0 0 1-1.79 1.79H25.38a1.8 1.8 0 0 1-1.8-1.79v-9.87M23.58 158.32v-35.45a2.41 2.41 0 0 1 2.42-2.41h7.39" class="cls-30"/><path d="M28.56 125.29h86.1v1.66h-86.1z" class="cls-15"/><path d="M33.62 120.4h7.36" class="cls-30"/><path d="M45.05 122.47h2.7M38.37 122.47h5.24" class="cls-10"/><path d="M78.99 179.89h-2.11l13.46-55.13h2.12l-13.47 55.13z" class="cls-16"/><path d="M88.34 179.89h-6.6l13.46-55.13h6.6l-13.46 55.13z" class="cls-17"/><path d="M75.71 179.89H73.6l13.46-55.13h2.11l-13.46 55.13z" class="cls-16"/><path d="M28.51 139.74v-14.91h86.1v55.22h-86.1V155.3" class="cls-30"/><circle cx="32.94" cy="132.26" r="1.74" class="cls-8"/><circle cx="35.92" cy="135.24" r="1.17" class="cls-8"/><circle cx="32.8" cy="135.32" r=".71" class="cls-8"/><path d="M28.52 142.64v9.37" class="cls-30"/><path d="M36.07 132.05h23.22v17.58H36.07z" class="cls-15"/><path d="M33.96 132.05h23.22v17.58H33.96z" class="cls-8"/><rect width="23.38" height="17.79" x="33.94" y="131.77" class="cls-3" rx="1.28"/><path d="M56.18 131.77H58a1.36 1.36 0 0 1 1.37 1.36v15.07a1.36 1.36 0 0 1-1.37 1.36h-1.82" class="cls-3"/><rect width="4.09" height="4.09" x="36.85" y="134.88" class="cls-3" rx="2.05"/><path d="M37.06 141.79h15.6M37.06 143.55h8.61" class="cls-10"/><path d="M110.55 160.67h18.06v13.67h-18.06z" class="cls-15"/><path d="M108.9 160.67h18.06v13.67H108.9z" class="cls-8"/><rect width="18.18" height="13.83" x="108.89" y="160.45" class="cls-31" rx=".99"/><path d="M126.18 160.45h1.42a1.06 1.06 0 0 1 1.06 1.06v11.72a1.06 1.06 0 0 1-1.06 1.06h-1.42" class="cls-31"/><rect width="3.18" height="3.18" x="111.15" y="162.87" class="cls-31" rx="1.59"/><path d="M111.32 168.25h12.13M111.32 169.61h6.69" class="cls-32"/><path d="M110.55 128.29h18.06v13.67h-18.06z" class="cls-15"/><path d="M108.9 128.29h18.06v13.67H108.9z" class="cls-8"/><rect width="18.18" height="13.83" x="108.89" y="128.07" class="cls-31" rx=".99"/><path d="M126.18 128.07h1.42a1.06 1.06 0 0 1 1.06 1.06v11.72a1.06 1.06 0 0 1-1.06 1.06h-1.42" class="cls-31"/><rect width="3.18" height="3.18" x="111.15" y="130.49" class="cls-31" rx="1.59"/><path d="M111.32 135.87h12.13M111.32 137.23h6.69" class="cls-32"/><path d="M110.46 144.84h17.1v12.94h-17.1z" class="cls-15"/><path d="M108.9 144.84H126v12.94h-17.1z" class="cls-8"/><rect width="17.21" height="13.1" x="108.89" y="144.63" class="cls-33" rx=".94"/><path d="M125.26 144.63h1.34a1 1 0 0 1 1 1v11.09a1 1 0 0 1-1 1h-1.34" class="cls-33"/><rect width="3.01" height="3.01" x="111.03" y="146.92" class="cls-33" rx="1.51"/><path d="M111.19 152.01h11.48M111.19 153.3h6.34" class="cls-32"/><path d="M73.86 125.36a26.21 26.21 0 1 0 26.2 26.2 26.24 26.24 0 0 0-26.2-26.2Zm0 2.38a23.67 23.67 0 0 1 16.34 6.55 5.78 5.78 0 0 0-2.57-.64c-1.55 0-4.12.67-4.12 5.12a11.62 11.62 0 0 0 2.26 5.17c1.57 2.55 3.36 5.43 2.91 7.69-1 3-2.46 7.2-3.84 11.13L78.17 142h.45a1.17 1.17 0 0 0 1.19-1.16 1.19 1.19 0 0 0-1.19-1.19H67.9a1.21 1.21 0 0 0-1.19 1.19A1.19 1.19 0 0 0 67.9 142h.89l3.78 10.77c-1 2.88-2.21 6.48-3.43 10L62.45 142h.69a1.17 1.17 0 0 0 1.19-1.16 1.19 1.19 0 0 0-1.19-1.19h-9.89a23.89 23.89 0 0 1 20.61-11.91ZM50 151.56a23.71 23.71 0 0 1 2-9.56h1.05l11 31.23A23.84 23.84 0 0 1 50 151.56Zm23.82 23.82a23.19 23.19 0 0 1-6.36-.88c1-2.93 4.07-11.43 6.36-18.05l6.36 18.05a22.82 22.82 0 0 1-6.32.88Zm9.79-2.12c1.6-4.43 5.1-14.31 7.12-20.36a.82.82 0 0 0 .1-.26 2.37 2.37 0 0 0 .09-.36c.31-.88.55-1.67.77-2.31 1.26-4 2.45-9.2 1.47-12.25a23.73 23.73 0 0 1-5.38 33.14 23.36 23.36 0 0 1-4.17 2.4Z" style="fill:#14b8c4"/><path d="M100.17 150.74v.59a26.2 26.2 0 1 1-52.4 0v-.59a26.21 26.21 0 0 0 52.4 0Z" class="cls-35"/><path d="M47.77 152.2v-.59a26.2 26.2 0 1 1 52.4 0v.59a26.21 26.21 0 0 0-52.4 0Z" class="cls-8"/><path d="m57.94 151.68 3.14 9.06M55.28 144.01l2.1 6.06" class="cls-36"/><path d="m86.45 163.99-3.09 8.56M70.75 163.76l-3.08 8.57M81.22 153.38l-2.72-8.68" class="cls-37"/><path d="M54.5 140.08h7.17M69.35 140.08h7.18M69.74 143.8l2.57 7.31" class="cls-38"/><path d="M73.86 125.36a26.21 26.21 0 1 0 26.2 26.2h0a26.24 26.24 0 0 0-26.2-26.2Zm0 2.38a23.67 23.67 0 0 1 16.34 6.55 5.78 5.78 0 0 0-2.57-.64c-1.55 0-4.12.67-4.12 5.12a11.62 11.62 0 0 0 2.26 5.17c1.57 2.55 3.36 5.43 2.91 7.69-1 3-2.46 7.2-3.84 11.13L78.17 142h.45a1.17 1.17 0 0 0 1.19-1.16v0a1.19 1.19 0 0 0-1.19-1.19H67.9a1.21 1.21 0 0 0-1.19 1.19A1.19 1.19 0 0 0 67.9 142h.89l3.78 10.77c-1 2.88-2.21 6.48-3.43 10L62.45 142h.69a1.17 1.17 0 0 0 1.19-1.16v0a1.19 1.19 0 0 0-1.19-1.19h-9.89a23.89 23.89 0 0 1 20.61-11.91Zm-15.64 28.88 5.85 16.64A23.77 23.77 0 0 1 52 142h1.05l2 5.8m.54 1.52 2 5.58m19.54 10.88 3.06 8.69a23.3 23.3 0 0 1-12.72 0c1-2.93 4.07-11.43 6.36-18.05l2.37 6.72m20.42-4.67a23.92 23.92 0 0 1-13 14.76c1.6-4.43 5.1-14.31 7.12-20.36a.82.82 0 0 0 .1-.26 2.37 2.37 0 0 0 .09-.36c.31-.88.55-1.67.77-2.31 1.26-4 2.45-9.2 1.47-12.25A23.68 23.68 0 0 1 97.26 156" class="cls-39"/><circle cx="71.38" cy="146.11" r=".5" class="cls-8"/><circle cx="72" cy="147.02" r=".1" class="cls-8"/><circle cx="70.93" cy="143.57" r=".24" class="cls-8"/><circle cx="71.54" cy="144.57" r=".11" class="cls-8"/><circle cx="72.55" cy="145.21" r=".25" class="cls-8"/><circle cx="72.22" cy="148.78" r=".43" class="cls-8"/><circle cx="72.63" cy="147.48" r=".22" class="cls-8"/><circle cx="73.72" cy="150.14" r=".22" class="cls-8"/><circle cx="72.9" cy="151.03" r=".24" class="cls-8"/><circle cx="69.8" cy="142.24" r=".17" class="cls-8"/><circle cx="71.38" cy="140.8" r=".46" class="cls-8"/><circle cx="73.51" cy="141.81" r=".18" class="cls-8"/><circle cx="74.62" cy="140.95" r=".36" class="cls-8"/><circle cx="84.99" cy="166.54" r=".56" class="cls-35"/><circle cx="83.09" cy="169.42" r=".4" class="cls-35"/><circle cx="83.64" cy="167.95" r=".15" class="cls-35"/><circle cx="83.55" cy="164.21" r=".36" class="cls-35"/><circle cx="82.71" cy="172.19" r=".06" class="cls-35"/><circle cx="82.75" cy="171.27" r=".15" class="cls-35"/><path d="M71.62 125.36a26.21 26.21 0 1 0 26.2 26.2 26.24 26.24 0 0 0-26.2-26.2Zm0 2.38A23.68 23.68 0 0 1 88 134.29a5.78 5.78 0 0 0-2.57-.64c-1.55 0-4.13.67-4.13 5.12a11.64 11.64 0 0 0 2.27 5.17c1.57 2.55 3.36 5.43 2.9 7.69-1 3-2.45 7.2-3.83 11.13L75.93 142h.45a1.17 1.17 0 0 0 1.19-1.16 1.19 1.19 0 0 0-1.19-1.19H65.66a1.21 1.21 0 0 0-1.19 1.19 1.19 1.19 0 0 0 1.19 1.16h.88l3.79 10.77c-1 2.88-2.21 6.48-3.43 10L60.21 142h.69a1.17 1.17 0 0 0 1.19-1.16 1.2 1.2 0 0 0-1.19-1.19H51a23.89 23.89 0 0 1 20.62-11.91ZM47.8 151.56a23.54 23.54 0 0 1 2-9.53h1.05l11 31.23a23.81 23.81 0 0 1-14.05-21.7Zm23.82 23.82a23.19 23.19 0 0 1-6.36-.88c1-2.93 4.07-11.43 6.36-18.05L78 174.5a22.82 22.82 0 0 1-6.38.88Zm9.79-2.12c1.59-4.43 5.1-14.31 7.12-20.36a.82.82 0 0 0 .1-.26 2.37 2.37 0 0 0 .09-.36c.31-.88.55-1.67.76-2.31 1.27-4 2.46-9.2 1.48-12.25a23.72 23.72 0 0 1-9.55 35.54Z" style="fill:#37f44d"/><path d="M97.93 150.74v.59a26.21 26.21 0 1 1-52.41 0v-.59a26.21 26.21 0 0 0 52.41 0Z" class="cls-35"/><path d="M45.52 152.2v-.59a26.21 26.21 0 1 1 52.41 0v.59a26.21 26.21 0 0 0-52.41 0Z" class="cls-8"/><path d="m55.7 151.68 3.14 9.06M53.04 144.01l2.1 6.06" class="cls-36"/><path d="m84.2 163.99-3.08 8.56M68.51 163.76l-3.08 8.57M78.98 153.38l-2.73-8.68" class="cls-37"/><path d="M52.26 140.08h7.17M67.11 140.08h7.17M67.5 143.8l2.57 7.31" class="cls-38"/><path d="M71.62 125.36a26.21 26.21 0 1 0 26.2 26.2h0a26.24 26.24 0 0 0-26.2-26.2Zm0 2.38A23.68 23.68 0 0 1 88 134.29a5.78 5.78 0 0 0-2.57-.64c-1.55 0-4.13.67-4.13 5.12a11.64 11.64 0 0 0 2.27 5.17c1.57 2.55 3.36 5.43 2.9 7.69-1 3-2.45 7.2-3.83 11.13L75.93 142h.45a1.17 1.17 0 0 0 1.19-1.16v0a1.19 1.19 0 0 0-1.19-1.19H65.66a1.21 1.21 0 0 0-1.19 1.19 1.19 1.19 0 0 0 1.19 1.16h.88l3.79 10.77c-1 2.88-2.21 6.48-3.43 10L60.21 142h.69a1.17 1.17 0 0 0 1.19-1.16v0a1.2 1.2 0 0 0-1.19-1.19H51a23.89 23.89 0 0 1 20.62-11.91ZM56 156.62l5.86 16.64A23.77 23.77 0 0 1 49.8 142h1.05l2 5.8m.54 1.52 2 5.58m19.53 10.88L78 174.5a23.3 23.3 0 0 1-12.72 0c1-2.93 4.07-11.43 6.36-18.05l2.36 6.72m20.43-4.67a23.92 23.92 0 0 1-13 14.76c1.59-4.43 5.1-14.31 7.12-20.36a.82.82 0 0 0 .1-.26 2.37 2.37 0 0 0 .09-.36c.31-.88.55-1.67.76-2.31 1.27-4 2.46-9.2 1.48-12.25A23.68 23.68 0 0 1 95 156" class="cls-39"/><circle cx="69.14" cy="146.11" r=".5" class="cls-8"/><circle cx="69.76" cy="147.02" r=".1" class="cls-8"/><circle cx="68.69" cy="143.57" r=".24" class="cls-8"/><circle cx="69.3" cy="144.57" r=".11" class="cls-8"/><circle cx="70.3" cy="145.21" r=".25" class="cls-8"/><circle cx="69.98" cy="148.78" r=".43" class="cls-8"/><circle cx="70.39" cy="147.48" r=".22" class="cls-8"/><circle cx="71.48" cy="150.14" r=".22" class="cls-8"/><circle cx="70.65" cy="151.03" r=".24" class="cls-8"/><circle cx="67.56" cy="142.24" r=".17" class="cls-8"/><circle cx="69.14" cy="140.8" r=".46" class="cls-8"/><circle cx="71.27" cy="141.81" r=".18" class="cls-8"/><circle cx="72.38" cy="140.95" r=".36" class="cls-8"/><circle cx="82.75" cy="166.54" r=".56" class="cls-35"/><circle cx="80.85" cy="169.42" r=".4" class="cls-35"/><circle cx="81.39" cy="167.95" r=".15" class="cls-35"/><circle cx="81.31" cy="164.21" r=".36" class="cls-35"/><circle cx="80.47" cy="172.19" r=".06" class="cls-35"/><circle cx="80.51" cy="171.27" r=".15" class="cls-35"/><path d="M35.07 190.77h-3.38l2-26.36h3.38l-2 26.36zM37.9 190.77h-1.7l2-26.36h1.7l-2 26.36z" class="cls-41"/><path d="M19.27 164.42h42.06v.87H19.27z" style="opacity:.5;fill:#429dc1" transform="rotate(-180 40.305 164.85)"/><path d="M61.34 164.42H19.28v-1.7a1.6 1.6 0 0 1 1.6-1.6h38.85a1.6 1.6 0 0 1 1.6 1.6v1.7Z" class="cls-20"/><circle cx="26.45" cy="162.73" r=".46" class="cls-19"/><circle cx="24.83" cy="162.73" r=".46" class="cls-19"/><circle cx="23.21" cy="162.73" r=".46" class="cls-19"/><circle cx="26.45" cy="162.73" r=".46" class="cls-43"/><circle cx="24.83" cy="162.73" r=".46" class="cls-43"/><circle cx="23.21" cy="162.73" r=".46" class="cls-43"/><path d="M30.42 161.72h9.88M46.45 164.14h9.88" class="cls-44"/><path d="M38.9 163.2h4.94M52.67 162.73h4.94" class="cls-45"/><rect width="42.06" height="29.57" x="19.27" y="161.2" class="cls-3" rx="1.62" transform="rotate(-180 40.305 175.985)"/><path d="M61.33 164.42H19.27" style="stroke-width:.41px;stroke:#232144;stroke-linecap:round;stroke-linejoin:round;fill:none"/><path d="m48.52 13.32 6.2-.06-2.75 34.93-13.94 4.01-14.01-3.73-.52-5.26" style="fill:#2facdd"/><path d="m52.56 13.28 2.16-.02-2.75 34.93-1.75.5" class="cls-48"/><path d="m48.17 49.2-14.33 4.13-14.4-3.84-3.56-35.84 35.13-.36-2.84 35.91z" style="fill:#5dc5f9"/><path d="m45.28 14.58 4.59-.05-1.33 14.77M49.35 20.28l-.44 4.89M49.19 22.12l-.09.98" class="cls-50"/><path d="m47.88 17.54-.49 5.51M46.55 40.75l-.5 5.51" class="cls-51"/><path d="m33.44 13.47.4 39.86-14.39-3.84-3.57-35.84 17.56-.18z" class="cls-20"/><path d="M26.69 20v3.86h-1.18V20Zm-.94 1.33h3.08v1.08h-3.09ZM29.28 20v3.85h-1.22v-3.86ZM29.66 20h3.42v1H32v2.79h-1.19v-2.78h-1.1ZM34.58 23.76h-1.29l.71-4.05 1.73 2.07 1.69-2.1.76 4.05h-1.3l-.21-1.58-.92 1.23-.94-1.21ZM39.86 19.85v2.84h1.57v1h-2.79v-3.86Z" class="cls-6"/><path d="m17.67 20.01 1.77 17.49" style="opacity:.26;stroke:#029dc1;stroke-width:2px;stroke-linecap:round;stroke-linejoin:round;fill:none"/><path d="m18.27 25.91.59 5.79" style="opacity:.46;stroke:#0084a3;stroke-width:2px;stroke-linecap:round;stroke-linejoin:round;fill:none"/><path d="m18.4 38.98-2.52-25.33 7.89-.08M44.64 13.36l6.37-.07-2.84 35.91-14.33 4.13-14.4-3.84-.53-5.41M29.44 13.51l11.09-.11M26.39 13.54l.93-.01" class="cls-30"/><path d="m33.83 42.58-5.27-1.66-.5-4.52 2.67-.29.31 2.77 2.76.87 2.85-.97.4-3.88-9.35.09-.92-7.42 13.36-.14.03 2.69-10.35.11.26 2.05 9.95-.1-.88 8.59-5.32 1.81z" class="cls-6"/><path d="m138.57 38.42 6.2-.06-2.76 34.93-13.94 4.02-14-3.74-.53-5.26" style="fill:#d35500"/><path d="m142.61 38.38 2.16-.02-2.76 34.93-1.75.5" class="cls-48"/><path d="m138.22 74.3-14.34 4.14-14.39-3.85-3.57-35.84 35.13-.36-2.83 35.91z" style="fill:#f9832b"/><path d="m135.33 39.68 4.58-.05-1.33 14.77M139.4 45.38l-.45 4.89M139.23 47.22l-.09.98" class="cls-50"/><path d="m138.12 61.74-.5 5.51" class="cls-51"/><path d="m123.48 38.58.41 39.85-14.4-3.84-3.57-35.83 17.56-.18z" style="fill:#ffcda4"/><path d="m107.71 45.11 1.78 17.49" style="opacity:.26;stroke-width:2px;stroke:#fff;stroke-linecap:round;stroke-linejoin:round;fill:none"/><path d="m108.31 51.01.59 5.79" style="opacity:.46;stroke-width:2px;stroke:#fff;stroke-linecap:round;stroke-linejoin:round;fill:none"/><path d="m108.44 64.08-2.52-25.33 7.89-.08M134.68 38.46l6.37-.07-2.83 35.91-14.34 4.14-14.39-3.85-.54-5.41M119.48 38.61l11.09-.11M116.43 38.64l.94-.01" class="cls-30"/><text style="font-size:6.1px;font-family:Jost-Bold,Jost;font-weight:700;fill:#232144" transform="rotate(-.58 4947.509 -11560.758)">CSS</text><path d="M129.94 53.11h-13.4l.31 3.2h6.4l-6.2 2.39.3 3.21h8.7l-.28 3.2-2.52.79-2.51-.81-.26-1.58h-2.98l.36 3.98 5.39 1.6 5.38-1.6.79-8.79h-6.15l6.38-2.39.29-3.2z" class="cls-6"/><path d="M22.89 61.29h24.73a.75.75 0 0 1 .75.75V78.4a2.14 2.14 0 0 1-2.14 2.14H22.89V61.29Z" class="cls-15"/><path d="M20 61.29h25.47v19.26H21.6a1.62 1.62 0 0 1-1.6-1.62V61.29Z" class="cls-8"/><path d="M48.44 72.34v6.17a2 2 0 0 1-2 2h-.89M45.57 61h.89a2 2 0 0 1 2 2v7" class="cls-60"/><rect width="3.68" height="3.68" x="22.58" y="63.82" class="cls-14" rx="1.84"/><path d="M22.77 70.04h17.49M22.77 71.61h7.74" class="cls-61"/><path d="M31.71 79.82H20.81v-7.11" class="cls-62"/><path d="M20 65.56v-3.38A1.16 1.16 0 0 1 21.12 61h23.33a1.16 1.16 0 0 1 1.15 1.15v3.19M45.6 74.67v4.67a1.15 1.15 0 0 1-1.15 1.14H21.12A1.15 1.15 0 0 1 20 79.34V67.5M45.6 67.92v3.79" class="cls-60"/><rect width="3.68" height="3.68" x="22.58" y="63.82" class="cls-63" rx="1.84"/><path d="M56.27 61.29H81a.75.75 0 0 1 .75.75V78.4a2.14 2.14 0 0 1-2.14 2.14H56.27V61.29Z" class="cls-15"/><path d="M53.37 61.29h25.49v19.26H55a1.62 1.62 0 0 1-1.62-1.62V61.29h-.01Z" class="cls-8"/><path d="M81.83 72.34v6.17a2 2 0 0 1-2 2H79M79 61h.89a2 2 0 0 1 2 2v7" class="cls-60"/><rect width="3.68" height="3.68" x="55.97" y="63.82" class="cls-14" rx="1.84"/><path d="M56.16 70.04h17.48M56.16 71.61h7.74" class="cls-61"/><path d="M65.1 79.82H54.2v-7.11" class="cls-62"/><path d="M53.36 65.56v-3.38A1.15 1.15 0 0 1 54.51 61h23.33A1.16 1.16 0 0 1 79 62.18v3.19M79 74.67v4.67a1.15 1.15 0 0 1-1.15 1.14H54.51a1.14 1.14 0 0 1-1.15-1.14V67.5M78.99 67.92v3.79" class="cls-60"/><rect width="3.68" height="3.68" x="55.97" y="63.82" class="cls-63" rx="1.84"/><path d="M23.58 166.61v3.9" class="cls-30"/><path d="M185.1 5.29h94.61a4 4 0 0 1 4 4v67.2a1.91 1.91 0 0 1-1.91 1.91H183a1.91 1.91 0 0 1-1.91-1.91V9.25a4 4 0 0 1 4.01-3.96Z" style="fill:#3e3e5b"/><path d="M181.55 14.12h102.12v3.26H181.55z" class="cls-65"/><path d="M283.67 17.38v59.07l-1.91 1.91h-39.53l-17.48-64.24h58.92v3.26z" class="cls-65"/><path d="M185 5.07h94.71A3.91 3.91 0 0 1 283.67 9v5.14H181.14V9A3.91 3.91 0 0 1 185 5.07Z" class="cls-66"/><circle cx="272.57" cy="10.04" r="1.13" class="cls-67"/><circle cx="276.07" cy="10.04" r="1.13" class="cls-68"/><circle cx="279.56" cy="10.04" r="1.13" class="cls-69"/><circle cx="272.57" cy="10.04" r="1.13" class="cls-10"/><circle cx="276.07" cy="10.04" r="1.13" class="cls-10"/><circle cx="279.56" cy="10.04" r="1.13" class="cls-10"/><path d="M206.91 14.12h76.76M181.14 14.12h21.78" class="cls-30"/><path d="M193.22 6.26h12.7M209.24 6.26h4.09" class="cls-70"/><path d="M195.27 10.04h-5.28M186.67 10.04h-2.05" class="cls-71"/><path d="M260.58 6.26h-12.7M244.56 6.26h-4.09" class="cls-70"/><path d="M227.86 5.29h51.85a4 4 0 0 1 4 4v67.2a1.92 1.92 0 0 1-1.91 1.91h-98.75a1.91 1.91 0 0 1-1.91-1.91V9.25a4 4 0 0 1 4-4h38.05" class="cls-30"/><path d="M269.21 83.77h13a6.18 6.18 0 0 0 6.18-6.18h0V7.87a7.26 7.26 0 0 0-7.17-7.36h-63.15M254.21 83.77h12.07M205.59 83.77h44.7M195.29.51h-11.57a7.26 7.26 0 0 0-7.16 7.36v69.72h0a6.18 6.18 0 0 0 6.18 6.18h17.33" class="cls-72"/><path d="M199.57.51h14.67" class="cls-30"/><path d="M192.69 28.9h9.88M207.11 28.9h6.88M218.9 28.92h6.89" class="cls-73"/><path d="M192.63 23.63h14.89" class="cls-74"/><path d="M211.28 23.63h8.54" class="cls-70"/><path d="M192.63 34.19h22.89" class="cls-51"/><path d="M219.28 34.19h8.54" class="cls-70"/><path d="M192.63 39.46h14.89" class="cls-74"/><path d="M211.28 39.46h8.54" class="cls-70"/><path d="M192.69 56.29h9.88M207.11 56.29h6.88M218.9 56.31h6.89" class="cls-73"/><path d="M192.63 51.02h14.89" class="cls-74"/><path d="M211.28 51.02h8.54" class="cls-70"/><path d="M192.63 61.57h22.89" class="cls-51"/><path d="M219.28 61.57h8.54" class="cls-70"/><path d="M192.63 66.85h14.89" class="cls-74"/><path d="M211.28 66.85h8.54" class="cls-70"/><rect width="11.92" height="3.36" x="226.51" y="83.86" class="cls-66" rx=".39"/><path d="M228.9 84.26h3.19M233.68 84.26h1.95" class="cls-75"/><rect width="11.92" height="3.36" x="226.51" y="83.86" class="cls-3" rx=".39"/><rect width="25.01" height="7.06" x="219.96" y="86.79" class="cls-66" rx=".82"/><path d="M239.95 93.01h-6.69M229.94 93.01h-4.09" class="cls-70"/><rect width="25.01" height="7.06" x="219.96" y="86.79" class="cls-30" rx=".82"/><rect width="39.81" height="29.28" x="269.49" y="29.4" class="cls-66" rx="2.73"/><path d="M309.37 32.49v23.82a2.73 2.73 0 0 1-2.73 2.69h-11.83l-10.92-29.24h22.75a2.74 2.74 0 0 1 2.73 2.73Z" class="cls-76"/><path d="M309.3 32.13v2.06h-39.81v-2.06a2.73 2.73 0 0 1 2.73-2.73h34.35a2.73 2.73 0 0 1 2.73 2.73Z" class="cls-77"/><path d="M272.71 35.31h12.69M288.72 35.31h4.1" class="cls-70"/><path d="M286.32 57.21h12.7" class="cls-78"/><rect width="39.81" height="29.28" x="269.49" y="29.4" class="cls-72" rx="2.73"/><path d="M269.68 34.19h39.62" class="cls-72"/><circle cx="297.17" cy="42.93" r="1.84" class="cls-8"/><path d="M284.68 41.1a1.23 1.23 0 0 1 2.13 0l2.71 4.71 2.72 4.7a1.24 1.24 0 0 1-1.07 1.85h-10.86a1.23 1.23 0 0 1-1.06-1.85l2.71-4.7Z" class="cls-8"/><path d="M291.49 45a.81.81 0 0 1 1.4 0l1.79 3.09 1.78 3.09a.81.81 0 0 1-.7 1.22h-7.14a.81.81 0 0 1-.7-1.22l1.79-3.09Z" class="cls-8"/><circle cx="300.31" cy="31.79" r=".88" class="cls-67"/><circle cx="303.04" cy="31.79" r=".88" class="cls-68"/><circle cx="305.77" cy="31.79" r=".88" class="cls-69"/><circle cx="300.31" cy="31.79" r=".88" class="cls-79"/><circle cx="303.04" cy="31.79" r=".88" class="cls-79"/><circle cx="305.77" cy="31.79" r=".88" class="cls-79"/><rect width="39.81" height="29.28" x="158.64" y="44.22" class="cls-66" rx="2.73"/><path d="M198.51 47.32v23.82a2.73 2.73 0 0 1-2.73 2.73H184l-11-29.28h22.75a2.74 2.74 0 0 1 2.76 2.73Z" class="cls-76"/><path d="M198.45 47v2h-39.81v-2a2.73 2.73 0 0 1 2.73-2.73h34.35a2.73 2.73 0 0 1 2.73 2.73Z" class="cls-77"/><path d="M161.85 50.13h12.7M177.87 50.13h4.09" class="cls-70"/><path d="M175.47 72.03h12.69" class="cls-78"/><rect width="39.81" height="29.28" x="158.64" y="44.22" class="cls-72" rx="2.73"/><path d="M158.82 49.01h39.63" class="cls-72"/><circle cx="189.46" cy="46.62" r=".88" class="cls-67"/><circle cx="192.19" cy="46.62" r=".88" class="cls-68"/><circle cx="194.91" cy="46.62" r=".88" class="cls-69"/><circle cx="189.46" cy="46.62" r=".88" class="cls-79"/><circle cx="192.19" cy="46.62" r=".88" class="cls-79"/><circle cx="194.91" cy="46.62" r=".88" class="cls-79"/><text style="font-size:12px;font-family:Jost-ExtraBold,Jost;font-weight:800;fill:#fff" transform="translate(166.79 64.88)">&lt;/&gt;</text><path d="M186.95 185.73h95.15v1.64h-95.15z" class="cls-81"/><path d="M187 162.45v-36.39a2.45 2.45 0 0 1 2.42-2.48h7.39M187.02 172.22v-5.58M191.94 156.56v-9.44M200.53 123.44h7.36" class="cls-30"/><path d="m205 120.39-.09.98" class="cls-50"/><path d="M229.22 124.63h10" class="cls-18"/><path d="M176.89 187.92h114a6.34 6.34 0 0 1-6.34 6.34H183.22a6.33 6.33 0 0 1-6.33-6.34Z" style="fill:#c8ccdb"/><path d="M289.6 191.09a4.49 4.49 0 0 1-4.81 3.17H183.44a5.38 5.38 0 0 1-5.57-3.07Z" class="cls-81"/><path d="M176.7 187.66h114a6.34 6.34 0 0 1-6.3 6.34H183a6.34 6.34 0 0 1-6.34-6.34Z" class="cls-30"/><path d="M168.37 196.61h14.46" class="cls-25"/><circle cx="185.05" cy="196.61" r=".69" class="cls-24"/><path d="M185.26 190.93h4.2" class="cls-27"/><circle cx="183" cy="190.93" r=".75" class="cls-8"/><path d="M160.85 194.15h145.13v5.31H160.85z" class="cls-83"/><path d="M160.85 194.15h145.13v2.28H160.85z" class="cls-84"/><path d="M160.85 197.89h145.13v1.14H160.85z" class="cls-85"/><path d="M161 195.6a221.68 221.68 0 0 0 38.11 2.06c16.16-.95 26.93-2.69 43.24-2.69 19.17 0 38 2.69 63.51 3" class="cls-86"/><path d="M305.51 195.63c-25.51.32-44.34 3-63.51 3a158.32 158.32 0 0 1-21-1.63 247.6 247.6 0 0 0-60 .67" class="cls-86"/><path d="M167.61 194.15h138.37v5.31H160.85v-5.31h2.22" class="cls-87"/><path d="M7.9 196.61h14.45" class="cls-25"/><circle cx="24.57" cy="196.61" r=".69" class="cls-24"/><path d="M.37 194.15H145.5v5.31H.37z" class="cls-83"/><path d="M.37 194.15H145.5v2.28H.37z" class="cls-84"/><path d="M.37 197.89H145.5v1.14H.37z" class="cls-85"/><path d="M.48 195.61a221.73 221.73 0 0 0 38.11 2.06c16.16-1 26.93-2.7 43.25-2.7 19.17 0 38 2.7 63.5 3" class="cls-86"/><path d="M145 195.63c-25.51.32-44.34 3-63.51 3a158.32 158.32 0 0 1-21-1.65 247.6 247.6 0 0 0-60 .68" class="cls-86"/><path d="M7.13 194.15H145.5v5.32H.37v-5.32h2.22" class="cls-87"/><path d="M7.9 97.51h14.45" class="cls-25"/><circle cx="24.57" cy="97.51" r=".69" class="cls-24"/><path d="M.37 95.05H145.5v5.31H.37z" class="cls-83"/><path d="M.37 95.05H145.5v2.28H.37z" class="cls-84"/><path d="M.37 98.79H145.5v1.14H.37z" class="cls-85"/><path d="M.48 96.51a221.73 221.73 0 0 0 38.11 2.06c16.16-.95 26.93-2.7 43.25-2.7 19.17 0 38 2.7 63.5 3" class="cls-86"/><path d="M145 96.53c-25.51.32-44.34 3-63.51 3a156.65 156.65 0 0 1-21-1.65 247.6 247.6 0 0 0-60 .68" class="cls-86"/><path d="M7.13 95.05H145.5v5.32H.37v-5.32h2.22" class="cls-87"/><path d="M170.01 96.31h14.46" class="cls-25"/><circle cx="186.69" cy="96.31" r=".69" class="cls-24"/><path d="M162.49 93.85h145.13v5.31H162.49z" class="cls-83"/><path d="M162.49 93.85h145.13v2.28H162.49z" class="cls-84"/><path d="M162.49 97.59h145.13v1.14H162.49z" class="cls-85"/><path d="M162.59 95.31a221.79 221.79 0 0 0 38.12 2.06c16.15-1 26.92-2.7 43.24-2.7 19.17 0 38 2.7 63.51 3" class="cls-86"/><path d="M307.14 95.33c-25.5.32-44.34 3-63.5 3a156.52 156.52 0 0 1-21-1.65 247.59 247.59 0 0 0-60 .68" class="cls-86"/><path d="M169.25 93.85h138.37v5.32H162.49v-5.32h2.22" class="cls-87"/><path d="M210.64 166.56a29.14 29.14 0 0 0 13.91 1.44 88.25 88.25 0 0 0 13.75-3.14c3.12-.9 6-2.41 9.16-3.3 2.75-.79 3.75-1.56 8.44-2a60.61 60.61 0 0 1 20.17 1.41" style="stroke-width:4px;stroke:#8bd2fc;stroke-linecap:round;stroke-linejoin:round;fill:none"/><path d="M253 160.05c-5.72 1-12.34 4.11-17.45 5.71-8.44 2.65-17.69 3.58-26.12.87-1.72-.56-3.75-1.91-3.25-3.65.3-1.06 1.43-1.62 2.42-2.14a21 21 0 0 0 3.88-2.6 31.93 31.93 0 0 1 3.56-2.92c3.35-2 7.85-1.62 11.16.5a10.69 10.69 0 0 0 2.26 1.32 5.79 5.79 0 0 0 2.19.26c5.31-.23 9.69-4 14.16-6.83a48.54 48.54 0 0 1 15.41-6.46 31.47 31.47 0 0 1 4.86-.72h.18l1.81-.24H278l-.12 18.29s-3.24-1.55-16.27-1.81h-.06" class="cls-89"/><circle cx="219.99" cy="158.86" r="1.48" class="cls-8"/><circle cx="220.08" cy="158.86" r="1.48" class="cls-10"/><path d="M236.46 157.85c3.47-.89 6.59-3.41 9.56-5.32 3.82-2.46 7.81-4.8 12.26-5.94a1.13 1.13 0 0 0-.6-2.17 43.22 43.22 0 0 0-12.25 5.82c-1.49.95-3 1.93-4.45 2.86a19.34 19.34 0 0 1-5.11 2.58 1.13 1.13 0 0 0 .59 2.17Z" class="cls-8"/><path d="m277.92 153.13-.08 8.31s-3.24-1.55-16.27-1.81h-.06l-8.55.47c-5.72 1-12.34 4.11-17.45 5.71a55.15 55.15 0 0 1-10.94 2.29c2-.91 11-4.49 12.84-5.58 5.74-3.34 4.46-3 10.43-5.9a43.17 43.17 0 0 1 6.48-2.69 45.18 45.18 0 0 1 6.73-1.3 48.63 48.63 0 0 1 16.87.5Z" style="fill:#ef940f"/><path d="M224.67 156.86a6.75 6.75 0 0 0 4.58 2.81 24.7 24.7 0 0 0 5.15-.29c2-.25 4-1 6-.57a7.85 7.85 0 0 1 4.74 2.78 1.5 1.5 0 0 0 2.12-2.12c-2.59-3.26-6.92-4.2-10.84-3.46a37.9 37.9 0 0 1-5.41.67 3.75 3.75 0 0 1-4.26-2c-1.24-1.48-3.35.65-2.12 2.13Z" class="cls-8"/><path d="M220.09 168a51.19 51.19 0 0 0 15.5-2.5c6-1.87 14-5.83 20.31-6M242.09 152.85c-3.24 2.17-6.58 4.15-10.4 4.31a5.78 5.78 0 0 1-2.19-.25 11.13 11.13 0 0 1-2.26-1.32c-3.31-2.12-7.81-2.55-11.16-.5a30.77 30.77 0 0 0-3.56 2.91 21.09 21.09 0 0 1-3.88 2.61c-1 .51-2.12 1.07-2.42 2.14-.5 1.74 1.53 3.09 3.25 3.64a33.92 33.92 0 0 0 8.27 1.55M208.89 184.18h-16.95v-24.75M278.04 173.94v10.24h-64.91M191.94 143.87v-14.91h29.53" class="cls-30"/><rect width="31.16" height="31.16" x="173.88" y="117.47" class="cls-8" rx="15.58"/><path d="M191.5 122.39a15.45 15.45 0 0 0-5 0c-2.12.37-2.5 1.15-2.5 2.6v1h5v1.52h-6.88a3.13 3.13 0 0 0-3.12 2.54 9.33 9.33 0 0 0 0 5.08c.35 1.47 1.2 2.53 2.65 2.53h1.72v-2.28a3.18 3.18 0 0 1 3.13-3.11h5a2.52 2.52 0 0 0 2.51-2.54V125a2.81 2.81 0 0 0-2.51-2.61Zm-5.3 2.75a.92.92 0 1 1 .9-.91.91.91 0 0 1-.9.91Z" style="fill:#28445e"/><path d="M199.87 130.83c-.36-1.44-1-2.53-2.5-2.53h-1.87v2.22a3.21 3.21 0 0 1-3.13 3.17h-5a2.55 2.55 0 0 0-2.49 2.54V141c0 1.36 1.18 2.15 2.49 2.54a8.42 8.42 0 0 0 5 0c1.26-.36 2.5-1.1 2.5-2.54v-1h-5v-1.54h7.49c1.46 0 2-1 2.5-2.54a8.51 8.51 0 0 0 .01-5.09Zm-7.61 10.1a.92.92 0 1 1-.9.92.91.91 0 0 1 .9-.92Z" class="cls-89"/><path d="M185.31 134.82a2.55 2.55 0 0 0-.43 1.41V141c0 1.36 1.18 2.15 2.49 2.54a8.42 8.42 0 0 0 5 0c1.26-.36 2.5-1.1 2.5-2.54v-1h-5v-1.54h7.49c1.46 0 2-1 2.5-2.54a8.51 8.51 0 0 0 0-5.08c-.36-1.44-1-2.53-2.5-2.53h-1.86v2.22a3.21 3.21 0 0 1-3.13 3.17h-5a2.37 2.37 0 0 0-1.09.26" class="cls-92"/><path d="M187.82 131.88h3.15M183.24 134.1a3.2 3.2 0 0 1 2.95-2.18" class="cls-93"/><path d="M183.47 127.98h4.5" style="stroke:#32767f;stroke-linecap:round;stroke-linejoin:round;fill:none"/><path d="M181.38 127.62a3.12 3.12 0 0 0-2.37 2.46 9.33 9.33 0 0 0 0 5.08c.35 1.47 1.2 2.53 2.65 2.53h1.72v-2.28a3.18 3.18 0 0 1 3.13-3.11h5a2.52 2.52 0 0 0 2.51-2.54V125a2.81 2.81 0 0 0-2.51-2.6 15.45 15.45 0 0 0-5 0c-2.12.37-2.5 1.15-2.5 2.6v1h5v1.52h-6.26" class="cls-92"/><rect width="31.16" height="31.16" x="173.88" y="117.47" class="cls-30" rx="15.58"/><path d="M261.26 143.88s4.22 4.59 3 14.87M273 143.71s3.12 5.85.2 15.78" class="cls-51"/><path d="M263.28 147.62s1.05-4.32 3.64-4.4l-5.12.54" class="cls-8"/><path d="M253.65 146.72s8.47-.75 9.23 1.62v-4.55Z" class="cls-8"/><path d="M267.84 143.1a29 29 0 0 0-6.58.78 48.52 48.52 0 0 0-15.41 6.45M277.92 161.2s-1.85-1.85-20.12-1.85" class="cls-30"/><path d="m271.04 143.51 2.33 2.78 2.44-2.78h-4.77z" class="cls-8"/><path d="m276.07 143.22-5.03-.11" class="cls-30"/><path d="M266.89 159.77s3.61 10.08 11.15 10.08v13.92c-16.64 0-18.27-24.28-18.27-24.28Z" class="cls-6"/><path d="M225.73 128.96h52.31v45.33M187 187.55v-10.84M282.42 136.41v51.14" class="cls-30"/><path d="M210.84 123.58H280a2.44 2.44 0 0 1 2.42 2.46v6.3" class="cls-30"/></g></g></svg>